<svg width="408" height="126" viewBox="0 0 408 126" fill="none" xmlns="http://www.w3.org/2000/svg">
<g clip-path="url(#clip0)">
<path d="M102.296 77.8178C102.296 107.194 80.6145 125.676 57.5536 125.676C48.0928 125.676 35.8725 121.979 29.171 113.225V123.341H0V0H29.171V42.4107C35.8725 33.8508 48.0928 30.1544 57.5536 30.1544C80.6145 30.1544 102.296 48.4416 102.296 77.8178ZM72.7304 77.8178C72.7304 66.3397 62.8754 56.807 51.4435 56.807C40.4058 56.807 30.1565 66.1451 30.1565 77.8178C30.1565 89.4905 40.2087 99.0232 51.4435 99.0232C62.8754 99.0232 72.7304 89.2959 72.7304 77.8178Z" fill="#0E0F11"/>
<path d="M279.226 32.4889V54.2779H259.91V123.341H230.739V54.2779H213.986V32.4889H230.739V0H259.91V32.4889H279.226Z" fill="#0E0F11"/>
<path d="M289.871 123.341V0H319.042V123.341H289.871Z" fill="#0E0F11"/>
<path d="M408 35.2126L401.101 60.3088C395.386 57.0016 390.852 56.807 387.896 56.807C376.464 56.807 367.003 66.3397 367.003 93.1868V123.341H337.832V32.489H366.609V51.7489C371.93 36.7689 382.968 32.489 394.203 32.489C398.539 32.489 403.27 32.878 408 35.2126Z" fill="#0E0F11"/>
<path d="M143.621 32.489V71.1384C143.621 86.3777 144.081 98.7637 157.55 98.7637C170.952 98.7637 170.624 86.4426 170.624 71.1384V32.489H201.372V84.562C201.372 91.9547 200.321 98.3098 198.284 103.692C196.313 108.491 192.896 112.836 188.035 116.662C180.019 122.887 169.836 126.065 157.484 126.065C145.198 126.065 135.014 122.952 126.999 116.662C122.071 112.836 118.589 108.491 116.552 103.692C114.581 99.4122 113.596 93.0571 113.596 84.562V32.489H143.621Z" fill="#0E0F11"/>
</g>
<defs>
<clipPath id="clip0">
<rect width="408" height="126" fill="white"/>
</clipPath>
</defs>
</svg>
