<svg width="1309" height="313" viewBox="0 0 1309 313" fill="none" xmlns="http://www.w3.org/2000/svg" class="jss24"><path d="M156.27 0C69.97 0 0 69.96 0 156.27C0 242.58 69.96 312.54 156.27 312.54C242.58 312.54 312.54 242.58 312.54 156.27C312.54 69.96 242.58 0 156.27 0ZM127.33 228.61V78.13C127.33 76.53 128.63 75.24 130.22 75.24H179.42C181.02 75.24 182.31 76.54 182.31 78.13V203.63C182.31 204.75 182.95 205.77 183.97 206.25L230.32 228.2C231.99 228.99 231.43 231.51 229.58 231.51H130.23C128.63 231.51 127.34 230.21 127.34 228.62L127.33 228.61Z" fill="#0642FF"></path><path d="M1296.38 95.9894C1296.38 95.2594 1296.95 94.6895 1297.68 94.6895H1297.97C1298.53 94.6895 1298.92 94.9794 1299.15 95.3694L1302.29 100.329L1305.45 95.3594C1305.72 94.9194 1306.09 94.6994 1306.62 94.6994H1306.91C1307.64 94.6994 1308.21 95.2795 1308.21 95.9995V105.229C1308.21 105.959 1307.64 106.529 1306.91 106.529C1306.18 106.529 1305.63 105.939 1305.63 105.229V99.4894L1303.35 102.839C1303.08 103.249 1302.74 103.499 1302.27 103.499C1301.8 103.499 1301.46 103.249 1301.19 102.839L1298.94 99.5394V105.259C1298.94 105.969 1298.37 106.529 1297.66 106.529C1296.95 106.529 1296.39 105.969 1296.39 105.259V95.9894H1296.38Z" fill="#fff"></path><path d="M1287.97 97.0894H1285.74C1285.08 97.0894 1284.54 96.5494 1284.54 95.8894C1284.54 95.2294 1285.08 94.6895 1285.74 94.6895H1292.81C1293.47 94.6895 1294.01 95.2294 1294.01 95.8894C1294.01 96.5494 1293.47 97.0894 1292.81 97.0894H1290.58V105.229C1290.58 105.959 1290 106.529 1289.28 106.529C1288.56 106.529 1287.98 105.949 1287.98 105.229V97.0894H1287.97Z" fill="#fff"></path><path d="M507.898 111.269V201.249C507.898 203.869 510.018 205.989 512.638 205.989H526.848C529.468 205.989 531.588 203.869 531.588 201.249V170.469C531.588 169.159 532.648 168.099 533.958 168.099H577.428C579.368 168.099 581.108 166.919 581.828 165.119L588.158 149.289C589.088 146.959 587.378 144.419 584.858 144.419H533.958C532.648 144.419 531.588 143.359 531.588 142.049V132.579C531.588 131.269 532.648 130.209 533.958 130.209H582.168C584.108 130.209 585.848 129.029 586.568 127.229L592.898 111.399C593.828 109.069 592.118 106.529 589.598 106.529H512.648C510.028 106.529 507.908 108.649 507.908 111.269H507.898Z" fill="#fff"></path><path d="M607.35 111.269V201.249C607.35 203.869 609.47 205.989 612.09 205.989H626.3C628.92 205.989 631.04 203.869 631.04 201.249V170.469C631.04 169.159 632.1 168.099 633.41 168.099H676.88C678.82 168.099 680.56 166.919 681.28 165.119L687.61 149.289C688.54 146.959 686.83 144.419 684.31 144.419H633.41C632.1 144.419 631.04 143.359 631.04 142.049V132.579C631.04 131.269 632.1 130.209 633.41 130.209H681.62C683.56 130.209 685.3 129.029 686.02 127.229L692.35 111.399C693.28 109.069 691.57 106.529 689.05 106.529H612.1C609.48 106.529 607.36 108.649 607.36 111.269H607.35Z" fill="#fff"></path><path d="M706.799 111.269V201.249C706.799 203.869 708.919 205.989 711.539 205.989H781.059C782.999 205.989 784.739 204.809 785.459 203.009L791.789 187.179C792.719 184.849 791.009 182.309 788.489 182.309H732.849C731.539 182.309 730.479 181.249 730.479 179.939V170.469C730.479 169.159 731.539 168.099 732.849 168.099H776.319C778.259 168.099 779.999 166.919 780.719 165.119L787.049 149.289C787.979 146.959 786.269 144.419 783.749 144.419H732.849C731.539 144.419 730.479 143.359 730.479 142.049V132.579C730.479 131.269 731.539 130.209 732.849 130.209H781.059C782.999 130.209 784.739 129.029 785.459 127.229L791.789 111.399C792.719 109.069 791.009 106.529 788.489 106.529H711.539C708.919 106.529 706.799 108.649 706.799 111.269V111.269Z" fill="#fff"></path><path d="M931.74 182.3C930.43 182.3 929.37 181.24 929.37 179.93V111.26C929.37 108.64 927.25 106.52 924.63 106.52H910.42C907.8 106.52 905.68 108.64 905.68 111.26V201.24C905.68 203.86 907.8 205.98 910.42 205.98H970.47C972.41 205.98 974.15 204.8 974.87 203L981.2 187.17C982.13 184.84 980.42 182.3 977.9 182.3H931.73H931.74Z" fill="#fff"></path><path d="M891.479 142.039C891.479 122.429 875.579 106.529 855.959 106.529H810.969C808.349 106.529 806.229 108.649 806.229 111.269V201.249C806.229 203.869 808.349 205.989 810.969 205.989H825.179C827.799 205.989 829.919 203.869 829.919 201.249V179.939C829.919 178.629 830.979 177.569 832.289 177.569H844.729C845.849 177.569 846.899 178.099 847.569 178.989L866.039 203.609C867.159 205.099 868.909 205.979 870.779 205.979H889.129C892.059 205.979 893.729 202.639 891.969 200.299L873.029 175.049C872.519 174.369 872.709 173.389 873.449 172.969C884.219 166.869 891.489 155.309 891.489 142.049L891.479 142.039ZM829.919 132.569C829.919 131.259 830.979 130.199 832.289 130.199H855.639C862.009 130.199 867.499 135.099 867.799 141.469C868.119 148.269 862.699 153.879 855.969 153.879H832.289C830.979 153.879 829.919 152.819 829.919 151.509V132.569V132.569Z" fill="#fff"></path><path d="M1022.92 109.579L988.029 201.159C987.139 203.479 988.859 205.979 991.349 205.979H1006.61C1008.57 205.979 1010.34 204.769 1011.04 202.929L1015.93 190.079C1016.61 188.289 1018.33 187.109 1020.24 187.109H1051.6C1053.51 187.109 1055.23 188.289 1055.91 190.079L1060.8 202.929C1061.5 204.769 1063.26 205.979 1065.23 205.979H1080.49C1082.98 205.979 1084.69 203.489 1083.81 201.159L1048.92 109.579C1048.22 107.739 1046.46 106.529 1044.49 106.529H1027.34C1025.38 106.529 1023.61 107.739 1022.91 109.579H1022.92ZM1026.87 161.359L1034.81 140.509C1035.2 139.489 1036.64 139.489 1037.02 140.509L1044.96 161.359C1045.31 162.289 1044.63 163.289 1043.63 163.289H1028.19C1027.19 163.289 1026.51 162.289 1026.86 161.359H1026.87Z" fill="#fff"></path><path d="M1156.68 163.569C1156.68 164.759 1155.12 165.209 1154.49 164.189L1120.53 109.329C1119.45 107.589 1117.55 106.529 1115.5 106.529H1099.86C1097.24 106.529 1095.12 108.649 1095.12 111.269V201.249C1095.12 203.869 1097.24 205.989 1099.86 205.989H1114.07C1116.69 205.989 1118.81 203.869 1118.81 201.249V148.949C1118.81 147.759 1120.37 147.309 1121 148.329L1154.96 203.189C1156.04 204.929 1157.94 205.989 1159.99 205.989H1175.76C1178.31 205.989 1180.37 203.929 1180.37 201.379V111.279C1180.37 108.659 1178.25 106.539 1175.63 106.539H1161.42C1158.8 106.539 1156.68 108.659 1156.68 111.279V163.579V163.569Z" fill="#fff"></path><path d="M1234.81 106.529H1199.29C1196.67 106.529 1194.55 108.649 1194.55 111.269V201.249C1194.55 203.869 1196.67 205.989 1199.29 205.989H1234.81C1262.27 205.989 1284.53 183.729 1284.53 156.269C1284.53 128.809 1262.27 106.549 1234.81 106.549V106.529ZM1260.86 156.249C1260.86 170.629 1249.2 182.299 1234.81 182.299H1220.6C1219.29 182.299 1218.23 181.239 1218.23 179.929V132.569C1218.23 131.259 1219.29 130.199 1220.6 130.199H1234.81C1249.19 130.199 1260.86 141.859 1260.86 156.249V156.249Z" fill="#fff"></path><path d="M443.969 104.17C415.209 104.17 391.889 127.49 391.889 156.25C391.889 185.01 415.209 208.33 443.969 208.33C472.729 208.33 496.049 185.01 496.049 156.25C496.049 127.49 472.729 104.17 443.969 104.17V104.17ZM443.969 183.47C428.939 183.47 416.749 171.28 416.749 156.25C416.749 141.22 428.939 129.03 443.969 129.03C458.999 129.03 471.189 141.22 471.189 156.25C471.189 171.28 458.999 183.47 443.969 183.47Z" fill="#fff"></path></svg>
