<svg width="1122" height="220" viewBox="0 0 1122 220" fill="none" xmlns="http://www.w3.org/2000/svg">
<g clip-path="url(#clip0)">
<path d="M435.33 75.2099C427.7 75.2099 420.5 76.4699 413.9 78.9299C407.5 81.3199 401.61 84.1499 396.46 87.3999L404.39 104.39L405.08 103.97C409.24 101.46 413.55 99.2699 417.91 97.4899C422.2 95.7699 426.63 94.8799 431.09 94.8799C434.17 94.8799 436.75 95.3499 438.8 96.2299C440.82 97.1399 442.47 98.3999 443.73 99.9999C444.99 101.63 445.9 103.52 446.44 105.62C446.93 107.52 447.25 109.54 447.43 111.58C438.07 112.61 429.9 114.07 423.1 115.94C418.86 117.1 415.02 118.45 411.65 119.98C409.43 120.97 407.41 122.02 405.59 123.13C400.94 126.04 397.46 129.53 395.27 133.57C393.1 137.58 391.99 142.21 391.99 147.34C391.99 155.86 394.67 162.83 399.94 168.05C405.21 173.25 412.2 175.88 420.75 175.88C426.24 175.88 431.41 174.72 436.14 172.46C436.36 172.36 436.58 172.24 436.8 172.14C441.41 169.8 445.84 166.89 449.93 163.47L451.43 173.59H471.35V116.82C471.35 103.47 468.35 93.0999 462.41 85.9899C456.43 78.8599 447.32 75.2099 435.33 75.2099ZM447.47 146.95C444.07 150.09 440.83 152.54 437.85 154.24C434.87 155.95 431.5 156.81 427.84 156.81C424.1 156.81 420.99 155.9 418.6 154.11C416.26 152.35 415.12 149.58 415.12 145.62C415.12 143.49 415.66 141.44 416.73 139.54C417.81 137.64 419.64 135.91 422.16 134.4C424.77 132.84 428.25 131.42 432.51 130.17C436.56 128.98 441.58 128 447.47 127.25V146.95ZM321.74 125.26C323.01 128.8 323.72 133.04 323.72 137.71C323.72 142.94 322.66 147.89 320.54 152.49C318.42 157.09 315.38 161.19 311.42 164.65C307.46 168.04 302.58 170.87 296.92 172.85C291.26 174.9 284.83 175.89 277.68 175.89C272.94 175.89 268.27 175.4 263.75 174.4C260.07 173.55 256.39 172.49 252.86 171.01C245.08 167.83 239.78 164.22 234.61 159.84L234.47 159.7L244.09 138.98L246.42 141.03C250.8 145.06 255.76 148.39 261.2 150.79C265.23 152.63 269.12 153.83 273.15 154.33C274.78 154.54 276.4 154.68 278.1 154.68C285.03 154.68 290.26 153.27 293.8 150.44C297.34 147.68 299.03 144.07 299.03 139.48C299.03 137.08 298.61 135.02 297.69 133.4C296.84 131.7 295.57 130.22 293.94 128.94C292.24 127.67 290.19 126.46 287.93 125.33C287.58 125.19 287.22 124.98 286.87 124.84C285.03 123.92 282.91 123 280.22 121.87L262.89 114.37C260.84 113.52 258.86 112.53 256.95 111.47C255.82 110.9 254.76 110.2 253.7 109.56C250.59 107.58 247.76 105.18 245.35 102.49C242.87 99.7999 240.82 96.5499 239.34 92.7999C237.78 89.1899 237.01 84.8799 237.01 80.2099C237.01 75.0499 238.14 70.2399 240.33 65.8499C242.52 61.3899 245.49 57.4999 249.24 54.3199C252.99 51.0699 257.59 48.5199 262.89 46.6799C268.12 44.8399 273.92 43.9199 280.22 43.9199C282.91 43.9199 285.52 44.1299 288.14 44.4899C292.81 45.1999 297.26 46.4699 301.65 48.3099C308.01 50.9999 312.68 54.0399 317.63 58.4199L317.77 58.5599L309 77.4399L305.96 75.0399C302.21 72.0699 298.32 69.6599 294.43 67.9699C290.19 66.1299 285.45 65.1399 280.21 65.1399C279.64 65.1399 279.08 65.1399 278.51 65.2099C273.49 65.4199 269.39 66.6999 266.35 68.9599C262.96 71.3599 261.33 74.6899 261.33 78.9999C261.33 81.2599 261.83 83.1699 262.81 84.7999C263.87 86.3599 265.21 87.8399 266.98 89.1099C267.05 89.1799 267.19 89.2499 267.26 89.3199C269.03 90.5899 271.01 91.6499 273.27 92.6399C275.67 93.6999 278.22 94.7599 280.7 95.7499L297.18 102.61L297.82 102.89C301.5 104.45 304.96 106.28 308.07 108.34C311.32 110.53 314.01 112.94 316.27 115.62C318.56 118.4 320.39 121.58 321.74 125.26ZM357.81 96.8299V140.89C357.81 151.29 361.84 156.38 370.19 156.38C371.75 156.38 373.37 156.24 375.07 155.81C376.7 155.46 378.25 154.96 379.6 154.4L380.59 153.9L384.9 172.15L384.12 172.36C381.5 173.28 378.53 174.13 375.21 174.84C371.96 175.55 368.35 175.9 364.6 175.9C359.01 175.9 354.2 175.05 350.31 173.35C348.12 172.36 346.14 171.16 344.37 169.67C343.03 168.61 341.82 167.41 340.76 166.06C338.28 162.95 336.52 159.2 335.38 154.96C334.25 150.72 333.75 145.98 333.75 140.82V51.7799H357.8V77.5199H387.36L378.38 96.8299H357.81ZM550.86 148.17L559.06 165.71L558.56 166.13C554.25 169.17 551.28 171.08 546.04 172.92C540.81 174.83 535.08 175.89 529.7 175.89C524.82 175.89 520.22 175.25 515.77 173.98C514.28 173.63 512.8 173.13 511.39 172.57C505.8 170.38 500.78 167.05 496.61 162.74C495.55 161.68 494.49 160.48 493.5 159.13C490.74 155.59 488.48 151.49 486.78 146.9C484.45 140.75 483.31 133.53 483.31 125.61C483.31 117.76 484.58 110.62 487.2 104.39C489.32 99.3699 491.94 94.9799 495.19 91.3099C495.97 90.3899 496.82 89.4699 497.81 88.5499C502.2 84.2399 507.36 80.9099 513.16 78.6499C514.64 78.0099 516.2 77.5199 517.69 77.0199C522.15 75.8199 526.74 75.1799 531.41 75.1799C537.63 75.1799 543.08 76.2399 547.68 78.3599C551.64 80.2699 553.62 81.4699 557.09 83.8799L557.59 84.2999L549.03 102.55L548.96 102.76L546.48 100.71C544.29 99.0099 542.31 97.7399 540.33 96.8199C538 95.6899 535.38 95.0499 532.62 95.0499C530.43 95.0499 528.38 95.2599 526.47 95.7599C521.8 96.9599 517.91 99.5099 514.73 103.33C513.39 104.96 512.25 106.72 511.34 108.49C509.01 113.23 507.8 118.82 507.8 125.61C507.8 131.48 508.72 136.71 510.56 141.1C511.69 143.72 513.04 145.91 514.59 147.75C517.42 151.29 520.74 153.62 524.63 154.89C526.89 155.67 529.37 156.02 531.99 156.02C535.6 156.02 538.92 155.24 542.1 153.69C544.22 152.63 546.27 151.43 548.39 149.94L550.86 148.17ZM914.87 75.2099C907.24 75.2099 900.04 76.4699 893.44 78.9299C887.04 81.3199 881.15 84.1499 876 87.3999L883.93 104.39L884.62 103.97C888.78 101.46 893.09 99.2699 897.45 97.4899C901.74 95.7699 906.17 94.8799 910.63 94.8799C913.71 94.8799 916.29 95.3499 918.34 96.2299C920.36 97.1399 922.01 98.3999 923.27 99.9999C924.53 101.63 925.44 103.52 925.98 105.62C926.47 107.52 926.79 109.54 926.97 111.58C917.61 112.61 909.44 114.07 902.64 115.94C898.4 117.1 894.56 118.45 891.19 119.98C888.97 120.97 886.95 122.02 885.13 123.13C880.48 126.04 877 129.53 874.81 133.57C872.64 137.58 871.53 142.21 871.53 147.34C871.53 155.86 874.21 162.83 879.48 168.05C884.75 173.25 891.74 175.88 900.29 175.88C905.78 175.88 910.95 174.72 915.68 172.46C915.9 172.36 916.12 172.24 916.34 172.14C920.95 169.8 925.38 166.89 929.47 163.47L930.97 173.59H950.89V116.82C950.89 103.47 947.89 93.0999 941.95 85.9899C935.98 78.8599 926.87 75.2099 914.87 75.2099ZM927.02 146.95C923.62 150.09 920.38 152.54 917.4 154.24C914.42 155.95 911.05 156.81 907.39 156.81C903.65 156.81 900.54 155.9 898.15 154.11C895.81 152.35 894.67 149.58 894.67 145.62C894.67 143.49 895.21 141.44 896.28 139.54C897.36 137.64 899.19 135.91 901.71 134.4C904.32 132.84 907.8 131.42 912.06 130.17C916.11 128.98 921.13 128 927.02 127.25V146.95ZM1045.06 88.6299C1041.74 84.3199 1037.78 80.9899 1033.11 78.6599C1028.44 76.3999 1023.07 75.1899 1017.06 75.1899C1011.68 75.1899 1006.45 76.4599 1001.5 78.9399C996.83 81.2699 992.52 84.0999 988.63 87.2199L984.11 77.5299H967.2V210.84H991.1V180.29L990.6 166.64C994 169.4 997.53 171.59 1001.14 173.15C1010.69 177.32 1020.45 176.54 1029.36 172.37C1034.31 170.04 1038.77 166.64 1042.51 162.26C1046.26 157.88 1049.37 152.43 1051.63 145.99C1053.89 139.62 1055.03 132.27 1055.03 124.14C1055.03 116.78 1054.18 110.07 1052.48 104.12C1050.78 98.0999 1048.31 92.9399 1045.06 88.6299ZM1024.19 148.03C1020.09 153.26 1015.21 155.81 1009.2 155.81C1006.51 155.81 1003.54 155.24 1000.5 154.11C997.46 153.05 994.35 151.14 991.09 148.45V105.31C997.95 98.6599 1004.6 95.2699 1010.89 95.2699C1017.82 95.2699 1022.63 97.7499 1025.67 102.7C1028.78 107.79 1030.34 115.08 1030.34 124.34C1030.34 134.81 1028.29 142.8 1024.19 148.03ZM658.1 173.59L631.88 173.6L606.82 131.18L594.37 144.99V173.6H570.85V46.2399H594.37V115.42L628.53 77.4999H655.11L653.43 79.4899L621.06 115.38L658.08 173.54L658.11 173.59H658.1V173.59ZM1115.6 153.9L1119.91 172.15L1119.13 172.36C1116.51 173.28 1113.54 174.13 1110.22 174.84C1106.97 175.55 1103.36 175.9 1099.61 175.9C1094.02 175.9 1089.21 175.05 1085.32 173.35C1083.13 172.36 1081.15 171.16 1079.38 169.67C1078.04 168.61 1076.83 167.41 1075.77 166.06C1073.29 162.95 1071.53 159.2 1070.39 154.96C1069.26 150.72 1068.76 145.98 1068.76 140.82V51.7799H1092.81V77.5199H1122.37L1113.39 96.8299H1092.81V140.89C1092.81 151.29 1096.84 156.38 1105.19 156.38C1106.75 156.38 1108.37 156.24 1110.07 155.81C1111.7 155.46 1113.25 154.96 1114.6 154.4L1115.6 153.9ZM726.99 46.2399H699.6L658.49 172.46L658.12 173.6H682.64L692.43 139.6H733.38L743.17 173.6H768.45L727.19 46.8399L726.99 46.2399ZM698.13 120.38L702.23 106.13C704.27 99.5299 706.21 92.6399 708 85.6499C709.64 79.2599 711.28 72.8399 712.92 66.3999C714.56 72.7299 716.24 79.1199 717.93 85.5599C719.78 92.5699 721.75 99.4999 723.8 106.12L727.9 120.38H698.13ZM835.1 71.3699L835.74 84.4499C832.49 81.8299 829.23 79.7099 826.05 78.0899C822.23 76.1799 817.49 75.1899 812.05 75.1899C806.82 75.1899 801.65 76.3899 796.77 78.7299C791.82 81.1299 787.43 84.4599 783.69 88.7699C779.94 93.0799 776.83 98.3899 774.57 104.61C772.31 110.83 771.18 117.91 771.18 125.61C771.18 141.38 774.79 153.83 781.86 162.6C789 171.44 798.76 175.9 810.86 175.9C816.09 175.9 821.19 174.63 825.92 172.15C830.3 169.82 834.19 166.99 837.59 163.73L839.07 173.56H859V46.2599H835.1V71.3699ZM835.1 145.84C829.23 152.49 822.87 155.81 816.22 155.81C809.57 155.81 804.69 153.33 801.16 148.24C797.62 143.15 795.86 135.44 795.86 125.47C795.86 115.71 797.91 108.14 802.01 102.98C806.04 97.8199 810.92 95.2699 816.79 95.2699C819.9 95.2699 822.94 95.8399 825.98 96.9699C828.88 98.0299 831.99 99.9399 835.1 102.63V145.84V145.84Z" fill="black"/>
<path d="M132.9 45.85L154.28 0L76.08 0.02C46.51 0.03 19.63 17.17 7.13 43.96C-5.37 70.76 -1.21 102.37 17.79 125.02L58.99 174.15L37.61 220L115.82 219.98C145.39 219.97 172.27 202.84 184.77 176.04C197.27 149.24 193.11 117.63 174.11 94.98L132.9 45.85ZM161.64 165.26C159.21 170.46 153.99 173.79 148.25 173.79L73.25 173.77L89.6 138.71L32.32 70.48C28.63 66.08 27.82 59.95 30.25 54.75C32.68 49.55 37.9 46.22 43.64 46.22L118.64 46.24L102.29 81.3L159.57 149.53C163.26 153.92 164.07 160.06 161.64 165.26Z" fill="#0061FF"/>
</g>
<defs>
<clipPath id="clip0">
<rect width="1122" height="220" fill="white"/>
</clipPath>
</defs>
</svg>
