<?xml version="1.0" encoding="utf-8"?>
<!-- Generator: Adobe Illustrator 16.0.0, SVG Export Plug-In . SVG Version: 6.00 Build 0)  -->
<!DOCTYPE svg PUBLIC "-//W3C//DTD SVG 1.1//EN" "http://www.w3.org/Graphics/SVG/1.1/DTD/svg11.dtd">
<svg version="1.1" id="Layer_1" xmlns="http://www.w3.org/2000/svg" xmlns:xlink="http://www.w3.org/1999/xlink"
  width="841.89px" height="595.28px" xml:space="preserve">
<path fill-rule="evenodd" clip-rule="evenodd" fill="#FFFFFF" d="M658.813,263.745c0-12.324,0.08-24.648-0.029-36.972
  c-0.07-7.756-6.041-13.067-13.256-12.073c-4.932,0.679-7.527,3.633-7.529,8.644c-0.01,21.317,0.002,42.633-0.008,63.95
  c-0.002,7.383-3.252,11.227-9.537,11.35c-6.5,0.127-10.088-3.776-10.117-11.416c-0.07-19.651-0.033-39.303-0.012-58.955
  c0.002-3.033-0.156-5.976-2.031-8.565c-3.004-4.149-8.082-6.045-12.738-4.693c-5.131,1.49-8.439,5.964-8.518,12.157
  c-0.131,10.324-0.037,20.651-0.037,30.976c-0.002,10.159,0.047,20.318-0.02,30.477c-0.039,6.189-3.533,9.854-9.316,10.018
  c-5.766,0.164-10.193-3.408-10.225-9.246c-0.119-22.142-0.801-44.333,0.387-66.416c1.273-23.681,27.738-36.104,47.818-23.242
  c2.582,1.653,4.107,1.739,6.799,0.005c10.186-6.557,21.088-7.045,31.738-1.413c10.709,5.665,16.318,15.053,16.416,27.196
  c0.191,23.48,0.053,46.964,0.059,70.445c0.004,10.292,2.965,13.577,13.201,14.704c5.527,0.608,9.016,4.537,8.955,10.088
  c-0.061,5.732-3.814,9.512-9.752,9.822c-16.908,0.885-31.914-12.897-32.207-29.869
  C658.644,288.396,658.813,276.069,658.813,263.745z"/>
<path fill-rule="evenodd" clip-rule="evenodd" fill="#FFFFFF" d="M394.847,246.764c0-13.995-0.019-27.99,0.009-41.987
  c0.011-5.68,3.615-9.749,8.702-9.958c5.431-0.224,10.101,4.085,10.219,9.856c0.166,8.16,0.174,16.331-0.041,24.489
  c-0.083,3.156,1.075,4.031,4.018,4.004c11.496-0.101,22.992-0.084,34.488-0.011c2.74,0.017,3.785-0.894,3.719-3.79
  c-0.188-8.16,0.002-16.328-0.111-24.491c-0.072-5.148,3.092-8.12,7.164-9.742c3.879-1.546,7.322,0.329,10.127,3.454
  c1.371,1.527,1.709,3.126,1.709,4.993c-0.006,28.825,0.012,57.649-0.016,86.473c-0.006,5.218-3.836,9.146-8.914,9.348
  c-5.307,0.211-9.926-4.03-9.996-9.623c-0.137-10.661-0.18-21.329,0.053-31.986c0.082-3.719-1.064-4.978-4.789-4.915
  c-10.826,0.183-21.66,0.2-32.486-0.006c-3.997-0.076-5.087,1.328-4.984,5.234c0.271,10.323,0.068,20.658,0.119,30.988
  c0.021,4.263-1.806,7.112-5.589,9.2c-3.672,2.029-6.726,0.936-9.787-0.939c-2.793-1.712-3.71-4.275-3.676-7.605
  C394.932,275.423,394.847,261.093,394.847,246.764z"/>
<path fill-rule="evenodd" clip-rule="evenodd" fill="#CA0303" d="M170.04,255.068c0.435-9.093-1.02-20.303,0.619-31.373
  c2.985-20.164,21.081-33.451,41.423-30.816c20.042,2.597,33.986,19.889,32.249,39.992c-1.668,19.302-15.803,33.055-35.208,34.258
  c-6.832,0.423-11.05-2.738-11.681-8.752c-0.682-6.499,2.561-10.161,9.767-11.028c10.253-1.235,16.823-7.486,17.474-16.628
  c0.549-7.716-5.036-15.329-12.866-17.538c-11.155-3.146-21.825,5.148-21.904,17.26c-0.117,17.984-0.028,35.968-0.032,53.953
  c-0.001,8.162-3.2,12.169-9.75,12.241c-6.555,0.071-10.083-4.31-10.089-12.548C170.036,275.099,170.04,266.107,170.04,255.068z"/>
<path fill-rule="evenodd" clip-rule="evenodd" fill="#CA0303" d="M322.699,258.221c0,9.488,0.159,18.98-0.049,28.463
  c-0.18,8.234-6.586,12.691-13.889,9.97c-4.812-1.794-6.101-5.624-6.089-10.342c0.047-18.477,0.069-36.954-0.008-55.432
  c-0.033-7.669-4.695-13.986-11.678-16.3c-7.322-2.427-14.931-0.084-19.541,6.153c-3.882,5.251-4.575,11.032-1.914,16.963
  c2.896,6.451,8.033,9.873,15.154,10.455c8.118,0.664,11.831,5.208,10.281,12.381c-0.957,4.425-3.697,6.922-8.274,7.276
  c-18.214,1.412-35.463-12.416-37.909-30.388c-2.851-20.953,9.138-39.045,28.324-42.745c24.893-4.8,45.201,11.684,45.571,37.078
  C322.808,240.575,322.7,249.399,322.699,258.221z"/>
<path fill-rule="evenodd" clip-rule="evenodd" fill="#FFFFFF" d="M564.003,257.413c0,9.325,0.031,18.649-0.008,27.974
  c-0.033,7.837-3.727,12.22-10.068,12.079c-6.379-0.143-9.912-4.478-9.924-12.34c-0.029-18.149,0.033-36.299-0.029-54.448
  c-0.027-7.907-4.77-14.093-12.203-16.289c-7.303-2.156-14.951,0.579-19.281,6.895c-7.139,10.415-0.684,24.885,11.896,26.667
  c9.631,1.364,13.129,4.57,12.365,11.33c-0.756,6.686-5.174,9.196-14.777,8.396c-16.797-1.399-31.277-16.451-32.139-33.408
  c-1.018-20.035,10.902-36.366,28.928-39.63c25.154-4.556,44.918,11.713,45.225,37.298
  C564.089,240.428,564.003,248.921,564.003,257.413z"/>
<path fill-rule="evenodd" clip-rule="evenodd" fill="#CA0303" d="M330.336,274.874c11.842,5.676,11.842,5.676,19.457,1.325
  c0.065,4.384,2.954,4.237,6.161,4.267c18.59,0.179,31.729,9.215,37.558,25.615c7.643,21.504-7.563,45.926-30.223,48.418
  c-8.273,0.91-16.597,1.387-24.85-0.061c-5.028-0.883-8.45-5.291-8.127-9.758c0.354-4.869,4.77-9.047,9.989-9.169
  c5.491-0.129,10.99,0.031,16.483-0.028c10.538-0.113,18.417-7.246,18.654-16.81c0.26-10.536-6.862-18.013-17.948-18.534
  c-5.316-0.252-10.655-0.01-15.983-0.061c-6.58-0.063-11.146-4.644-11.168-11.139C330.324,284.339,330.336,279.735,330.336,274.874z
  "/>
<path fill-rule="evenodd" clip-rule="evenodd" fill="#CA0303" d="M142.715,244.661c0.004-13.969-0.141-27.939,0.058-41.905
  c0.12-8.457,8.559-12.932,15.52-8.507c3.887,2.471,4.428,6.354,4.428,10.47c-0.001,24.278,0,48.557,0,72.834
  c0,2.661,0.064,5.324-0.013,7.981c-0.206,7.071-3.83,11.038-10.063,11.104c-6.162,0.065-9.871-3.951-9.91-11.072
  C142.657,271.933,142.711,258.295,142.715,244.661z"/>
<path fill-rule="evenodd" clip-rule="evenodd" fill="#FFFFFF" d="M329.855,245.907c0-5.49-0.102-10.982,0.019-16.469
  c0.38-17.361,14.571-30.7,31.836-30.016c5.329,0.212,8.837,3.424,9.281,8.499c0.543,6.191-1.873,9.588-7.712,10.814
  c-1.138,0.238-2.295,0.38-3.433,0.616c-6.741,1.398-10.07,5.263-10.127,12.107c-0.085,10.313,0.004,20.628-0.032,30.942
  c-0.024,7.027-3.709,11.083-9.954,11.08c-6.329-0.004-9.828-3.914-9.872-11.104C329.828,256.887,329.855,251.396,329.855,245.907z"
  />
<path fill-rule="evenodd" clip-rule="evenodd" fill="#FFFFFF" d="M490.081,248.534c3.262,8.418,8.74,14.646,16.074,19.283
  c1.5,0.948,2.221,2.365,2.203,4.211c-0.057,5.66,0.166,11.33-0.105,16.978c-0.258,5.345-4.6,8.806-10.162,8.597
  c-4.928-0.186-9.234-4.55-9.248-9.481c-0.027-11.32-0.027-22.641,0.012-33.96C488.862,252.402,488.532,250.523,490.081,248.534z"/>
<path fill-rule="evenodd" clip-rule="evenodd" fill="#FFFFFF" d="M249.229,250.552c3.589,7.39,8.872,13.186,15.706,17.552
  c0.99,0.633,1.785,1.638,1.788,2.87c0.012,6.477,0.352,12.988-0.226,19.416c-0.437,4.865-5.502,7.785-10.807,7.18
  c-4.269-0.484-7.786-4.295-7.806-8.728c-0.055-12.559-0.019-25.118-0.019-37.677C248.32,250.96,248.775,250.756,249.229,250.552z"
  />
</svg>
