<?xml version="1.0" encoding="UTF-8"?>
<svg version="1.1" xmlns="http://www.w3.org/2000/svg" width="200" height="200">
<path d="M0 0 C50.82 0 101.64 0 154 0 C154 11.22 154 22.44 154 34 C114.4 34 74.8 34 34 34 C35.21548085 54.00917413 35.21548085 54.00917413 36.79272461 73.99047852 C37.02734375 81.75390625 37.02734375 81.75390625 34 99 C23.77 109.23 13.54 119.46 3 130 C77.745 130.495 77.745 130.495 154 131 C154 142.22 154 153.44 154 165 C138.25810007 165.02255485 122.5162129 165.04098376 106.77430153 165.05181217 C99.46541389 165.05697315 92.156537 165.06401208 84.84765625 165.07543945 C78.47882562 165.08539234 72.11000276 165.09185487 65.74116457 165.09408849 C62.36748885 165.09539457 58.99383538 165.09847394 55.62016678 165.10573006 C51.85825509 165.11294496 48.09639011 165.11399075 44.33447266 165.11352539 C42.64809944 165.1189183 42.64809944 165.1189183 40.92765808 165.12442017 C39.39636513 165.12235817 39.39636513 165.12235817 37.83413696 165.12025452 C36.94368494 165.12117631 36.05323292 165.1220981 35.1357975 165.12304783 C33 165 33 165 31 164 C31 163.34 31 162.68 31 162 C30.34 162 29.68 162 29 162 C29 161.34 29 160.68 29 160 C28.34 160 27.68 160 27 160 C27 159.34 27 158.68 27 158 C26.34 158 25.68 158 25 158 C25 157.34 25 156.68 25 156 C24.34 156 23.68 156 23 156 C23 155.34 23 154.68 23 154 C22.34 154 21.68 154 21 154 C21 153.34 21 152.68 21 152 C20.34 152 19.68 152 19 152 C19 151.34 19 150.68 19 150 C18.34 150 17.68 150 17 150 C17 149.34 17 148.68 17 148 C16.34 148 15.68 148 15 148 C15 147.34 15 146.68 15 146 C14.34 146 13.68 146 13 146 C13 145.34 13 144.68 13 144 C12.34 144 11.68 144 11 144 C11 143.34 11 142.68 11 142 C10.34 142 9.68 142 9 142 C9 141.34 9 140.68 9 140 C8.34 140 7.68 140 7 140 C7 139.34 7 138.68 7 138 C6.34 138 5.68 138 5 138 C5 137.34 5 136.68 5 136 C4.34 136 3.68 136 3 136 C3 135.34 3 134.68 3 134 C2.34 134 1.68 134 1 134 C-0.28311978 131.43376043 -0.12298145 129.6224527 -0.12025452 126.7482605 C-0.12163201 125.63716352 -0.12300951 124.52606655 -0.12442875 123.38129997 C-0.12083064 122.15187235 -0.11723253 120.92244473 -0.11352539 119.65576172 C-0.11364593 118.34711214 -0.11376646 117.03846256 -0.11389065 115.69015694 C-0.11411685 112.14322168 -0.10831177 108.59632001 -0.10128021 105.0493927 C-0.09559454 101.72376598 -0.0953176 98.39814077 -0.09460449 95.07250977 C-0.08935258 85.34000204 -0.07539148 75.6075006 -0.0625 65.875 C-0.041875 44.13625 -0.02125 22.3975 0 0 Z " fill="#45079B" transform="translate(23,17)"/>
<path d="M0 0 C22.11 0 44.22 0 67 0 C67 11.22 67 22.44 67 34 C44.89 34 22.78 34 0 34 C0 22.78 0 11.56 0 0 Z " fill="#45079B" transform="translate(88,82)"/>
<path d="M0 0 C2.97 0 5.94 0 9 0 C9.33 0.99 9.66 1.98 10 3 C11.65 2.01 13.3 1.02 15 0 C15 2.64 15 5.28 15 8 C14.34 7.01 13.68 6.02 13 5 C9.88214887 5.64644661 9.88214887 5.64644661 9 8 C8.34 8 7.68 8 7 8 C7 6.02 7 4.04 7 2 C6.01 2 5.02 2 4 2 C4 3.98 4 5.96 4 8 C3.67 8 3.34 8 3 8 C3 6.02 3 4.04 3 2 C2.01 2 1.02 2 0 2 C0 1.34 0 0.68 0 0 Z " fill="#8B64C1" transform="translate(181,17)"/>
</svg>
